<svg xmlns="http://www.w3.org/2000/svg" data-name="Filled outline" viewBox="0 0 64 64"><path fill="#fab440" d="M32 4A28.992 28.992 0 0 0 9.114 50.8a24.121 24.121 0 0 1-5.421 7.919 2 2 0 0 0 1.778 3.4c3.721-.73 7.873-2.139 10.324-5.064A29 29 0 1 0 32 4Z"/><path fill="#b3173d" d="m57.778 38.512-2.135 1.281a.5.5 0 0 1-.7-.2l-1.317-2.633a.5.5 0 0 0-.909.044l-1.038 2.7a.5.5 0 0 1-.816.173l-1.014-1.015a.5.5 0 0 0-.849.352v2.916l-3.169-4.321a.5.5 0 0 0-.881.163l-.626 2.3a.5.5 0 0 1-.617.347l-3.464-.99a.5.5 0 0 0-.615.615l.99 3.464a.5.5 0 0 1-.347.617l-2.3.626a.5.5 0 0 0-.163.881L42.13 49h-2.921a.5.5 0 0 0-.352.849l1.015 1.014a.5.5 0 0 1-.173.816L37 52.717a.5.5 0 0 0-.044.909l2.633 1.317a.5.5 0 0 1 .2.7l-1.281 2.135a.5.5 0 0 0 .471.751l10.36-.942.548 3.282a.5.5 0 0 0 .818.3c2.419-2.016 3.315-3.671 3.142-6.781a.5.5 0 0 1 .532-.532c3.111.173 4.766-.724 6.783-3.145a.5.5 0 0 0-.294-.815l-3.285-.548.942-10.36a.5.5 0 0 0-.747-.476Z"/><g fill="#1e120b"><circle cx="21" cy="9.5" r="1"/><circle cx="32" cy="32" r="1"/><path d="M28.75 22.5v5.25a1 1 0 0 0 2 0v-2h2.5v2a1 1 0 0 0 2 0V22.5a3.25 3.25 0 0 0-6.5 0zm4.5 0v1.25h-2.5V22.5a1.25 1.25 0 0 1 2.5 0zm-12-3.25a1 1 0 0 0-1 1v7.5a1 1 0 0 0 2 0V25h2.5v2.75a1 1 0 0 0 2 0v-7.5a1 1 0 0 0-2 0V23h-2.5v-2.75a1 1 0 0 0-1-1zm17 9.5a1 1 0 0 0 1-1v-3.89l2.643 4.405a1 1 0 0 0 1.857-.515v-7.5a1 1 0 0 0-2 0v3.89l-2.643-4.405a1 1 0 0 0-1.857.515v7.5a1 1 0 0 0 1 1zm-25.5-7.5H14v6.5a1 1 0 0 0 2 0v-6.5h1.25a1 1 0 0 0 0-2h-4.5a1 1 0 0 0 0 2zm34 7.5a1 1 0 0 0 1-1v-1.615l2.86 2.384a1 1 0 0 0 1.28-1.538L48.312 24l3.578-2.981a1 1 0 0 0-1.28-1.538l-2.86 2.384V20.25a1 1 0 0 0-2 0v7.5a1 1 0 0 0 1 1zm-23.25 6.5a3.254 3.254 0 0 0-3.25 3.25v3a3.25 3.25 0 0 0 6.5 0v-3a3.254 3.254 0 0 0-3.25-3.25zm1.25 6.25a1.25 1.25 0 0 1-2.5 0v-3a1.25 1.25 0 0 1 2.5 0zm9.5-6.25a1 1 0 0 0-1 1v5.25a1.25 1.25 0 0 1-2.5 0v-5.25a1 1 0 0 0-2 0v5.25a3.25 3.25 0 0 0 6.5 0v-5.25a1 1 0 0 0-1-1zm-16.485.143a1 1 0 0 0-1.372.342L15 38.057l-1.393-2.322a1 1 0 0 0-1.714 1.03L14 40.277v3.473a1 1 0 0 0 2 0v-3.473l2.107-3.512a1 1 0 0 0-.342-1.372zm6.918-26.301a1 1 0 0 0 .294-.044A23.939 23.939 0 0 1 32 8a1 1 0 0 0 0-2 25.911 25.911 0 0 0-7.609 1.136 1 1 0 0 0 .292 1.956zM28 31H9a1 1 0 0 0 0 2h19a1 1 0 0 0 0-2zm27 2a1 1 0 0 0 0-2H36a1 1 0 0 0 0 2z"/><path d="m61.036 48.9-2.369-.394.309-3.393A29.705 29.705 0 0 0 62 32a30 30 0 0 0-60 0 29.683 29.683 0 0 0 5.973 17.953A23.471 23.471 0 0 1 3 57a2.938 2.938 0 0 0-.574 3.54 2.959 2.959 0 0 0 3.238 1.56c4.615-.922 8.075-2.5 10.3-4.744a29.994 29.994 0 0 0 29.158 1.621l3.393-.309.394 2.367a1.512 1.512 0 0 0 2.445.9c2.068-1.727 3.092-3.282 3.406-5.336a6.449 6.449 0 0 1 1.265 4.374 1 1 0 0 0 1.96.392c.492-2.46-.874-4.961-2-6.522 2.355-.186 4.06-1.222 5.954-3.494a1.51 1.51 0 0 0-.903-2.449ZM38.178 59.313a28.044 28.044 0 0 1-21.824-4.089 1 1 0 0 0-1.326.186c-1.87 2.234-5.146 3.849-9.75 4.726a1 1 0 0 1-.891-1.7 25.511 25.511 0 0 0 5.661-8.283 1 1 0 0 0-.145-.97A27.725 27.725 0 0 1 4 32a28 28 0 1 1 55.312 6.179 1.484 1.484 0 0 0-2.048-.525l-1.67 1-1.073-2.147a1.508 1.508 0 0 0-2.737.132l-.761 1.977-.467-.468a1.507 1.507 0 0 0-2.551.932l-1.368-1.865a1.506 1.506 0 0 0-2.651.492l-.493 1.808-2.977-.851a1.508 1.508 0 0 0-1.849 1.852l.85 2.974-1.808.493a1.507 1.507 0 0 0-.491 2.653l1.865 1.367a1.507 1.507 0 0 0-.933 2.551l.467.467-1.977.76a1.509 1.509 0 0 0-.132 2.738l2.148 1.073-1 1.67a1.487 1.487 0 0 0 .522 2.051Zm16.26-6.459a1.138 1.138 0 0 0-.165.006l-.61-.61.674-7.414a1 1 0 1 0-1.992-.182l-.523 5.755-2.022-2.018.378-3.206a1 1 0 0 0-1.978-.235l-.2 1.639-2.915-2.915a1 1 0 0 0-1.414 1.414l2.861 2.861-1.621.252a1 1 0 0 0 .308 1.977c.766-.122 3.064-.478 3.064-.478l1.99 1.99-5.462.5a1 1 0 1 0 .181 1.992c1.78-.165 7.122-.648 7.122-.648l.745.745a1.464 1.464 0 0 0-.008.162 5.875 5.875 0 0 1-2.124 5.378s-.3-1.8-.4-2.393a1 1 0 0 0-1.078-.832c-2.343.217-9.373.852-9.373.852s.576-.966.772-1.286a1.516 1.516 0 0 0-.615-2.109c-.405-.2-1.614-.807-1.614-.807s1.224-.478 1.635-.629a1.514 1.514 0 0 0 .522-2.456c-.04-.038-.157-.156-.157-.156s1.281-.007 1.708 0a1.008 1.008 0 0 0 .592-1.807c-.881-.624-3.481-2.552-3.481-2.552s.967-.269 1.291-.353a1.515 1.515 0 0 0 1.048-1.855c-.193-.647-.742-2.595-.742-2.595s1.948.548 2.594.741a1.516 1.516 0 0 0 1.857-1.046c.084-.324.352-1.293.352-1.293l2.552 3.482A1.007 1.007 0 0 0 50 42.13v-1.707l.157.157a1.514 1.514 0 0 0 2.455-.522c.151-.411.629-1.635.629-1.635s.61 1.208.807 1.613a1.518 1.518 0 0 0 2.11.614c.319-.2 1.285-.771 1.285-.771l-.852 9.374a1 1 0 0 0 .832 1.077l2.394.4a5.889 5.889 0 0 1-5.379 2.124Z"/></g></svg>